# xmcd
#
# Track frame offsets: 
#        150
#        20922
#        42992
#        44950
#        74375
#        89812
#        107345
#        127952
#        129065
#        149487
#        172480
#        175875
#        213760
#        235835
#
# Disc length: 3416 seconds
#
# Revision: 0
# Processed by: cddbd v1.5.2PL0 Copyright (c) Steve Scherf et al.
# Submitted via: ExactAudioCopyFreeDBPlugin 1.0
#
DISCID=d40d560e
DTITLE=Cyril Neville - 4 the funk of it
DYEAR=2003
DGENRE=Funk
TTITLE0=Just for the funk of it
TTITLE1=Foxy lady
TTITLE2=Remembering Benny's 1
TTITLE3=All that glitters
TTITLE4=I need to belong
TTITLE5=Projects
TTITLE6=My brother
TTITLE7=Remembering Benny's 2
TTITLE8=Big Chief Jolly
TTITLE9=Urban rainforest
TTITLE10=Remembering Benny's 3
TTITLE11=Indian Red traditional - arrangement
TTITLE12=We the people
TTITLE13=Bonus track
EXTD=
EXTT0=
EXTT1=
EXTT2=
EXTT3=
EXTT4=
EXTT5=
EXTT6=
EXTT7=
EXTT8=
EXTT9=
EXTT10=
EXTT11=
EXTT12=
EXTT13=
PLAYORDER=
